<svg xmlns="http://www.w3.org/2000/svg" width="13.417" height="11.805" viewBox="0 0 13.417 11.805">
  <g id="Grupo_552" data-name="Grupo 552" transform="translate(0 0)">
    <path id="Trazado_393" data-name="Trazado 393" d="M7675.975,3908.52a1.4,1.4,0,0,1-1.4-1.4v-7.952a1.4,1.4,0,0,1,1.4-1.4h3.243a1.4,1.4,0,0,1,1.4,1.4.348.348,0,0,0,.349.349h4.261a1.4,1.4,0,0,1,1.4,1.4h-1.053a.349.349,0,0,0-.349-.349h-4.261a1.4,1.4,0,0,1-1.4-1.4.349.349,0,0,0-.349-.348h-3.243a.349.349,0,0,0-.349.348v7.952a.349.349,0,0,0,.349.349Z" transform="translate(-7674.575 -3897.767)" fill="#9f79ff"/>
    <path id="Trazado_394" data-name="Trazado 394" d="M7686.458,3909.269H7677.2a1.4,1.4,0,0,1-1.4-1.4v-5.847a1.4,1.4,0,0,1,1.4-1.4l9.254-.039a1.4,1.4,0,0,1,1.4,1.4v5.886A1.4,1.4,0,0,1,7686.458,3909.269Zm0-7.636-9.253.039a.35.35,0,0,0-.352.349v5.847a.349.349,0,0,0,.349.349h9.254a.348.348,0,0,0,.349-.349v-5.886A.348.348,0,0,0,7686.46,3901.633Z" transform="translate(-7674.442 -3897.464)" fill="#9f79ff"/>
  </g>
</svg>
