<svg xmlns="http://www.w3.org/2000/svg" width="12.945" height="15.885" viewBox="0 0 12.945 15.885">
  <g id="Grupo_553" data-name="Grupo 553" transform="translate(0 0)">
    <path id="Trazado_395" data-name="Trazado 395" d="M7676.07,3976.749a.465.465,0,0,0,.658-.658l-.757-.757a.466.466,0,1,0-.659.658Z" transform="translate(-7674.745 -3972.809)" fill="#9f79ff"/>
    <path id="Trazado_396" data-name="Trazado 396" d="M7685.027,3976.885a.462.462,0,0,0,.328-.136l.758-.758a.465.465,0,1,0-.657-.658l-.758.757a.465.465,0,0,0,.329.794Z" transform="translate(-7673.735 -3972.809)" fill="#9f79ff"/>
    <path id="Trazado_397" data-name="Trazado 397" d="M7680.72,3975.042a.465.465,0,0,0,.466-.465v-1.071a.466.466,0,0,0-.932,0v1.071A.466.466,0,0,0,7680.72,3975.042Z" transform="translate(-7674.199 -3973.041)" fill="#9f79ff"/>
    <path id="Trazado_398" data-name="Trazado 398" d="M7687.268,3985.832h-.717v-4.661a5.291,5.291,0,0,0-10.581,0v4.661h-.717a.466.466,0,0,0-.466.465v1.857a.466.466,0,0,0,.466.465h12.015a.465.465,0,0,0,.465-.465V3986.3a.465.465,0,0,0-.465-.465Zm-10.368-4.661a4.36,4.36,0,0,1,8.721,0v4.661h-3.895v-3.48a1.736,1.736,0,1,0-.932,0v3.48H7676.9Zm4.361.313a.806.806,0,1,1,.8-.807A.807.807,0,0,1,7681.261,3981.485Zm5.541,6.205h-11.084v-.927H7686.8Z" transform="translate(-7674.787 -3972.735)" fill="#9f79ff"/>
  </g>
</svg>
