<svg xmlns="http://www.w3.org/2000/svg" width="14.985" height="11.053" viewBox="0 0 14.985 11.053">
  <g id="Grupo_551" data-name="Grupo 551" transform="translate(0 0)">
    <path id="Trazado_392" data-name="Trazado 392" d="M7688.735,3866.258a1.212,1.212,0,0,0-.526-.554,1.6,1.6,0,0,0-.777-.192h-1.507v-1.256a1.77,1.77,0,0,0-1.759-1.759H7679.9v-.251a1.768,1.768,0,0,0-1.759-1.758h-2.512a1.766,1.766,0,0,0-1.758,1.758v7.536a1.769,1.769,0,0,0,1.758,1.759h8.541a2.831,2.831,0,0,0,2.01-.958l2.316-2.85a1.5,1.5,0,0,0,.36-.942A1.247,1.247,0,0,0,7688.735,3866.258Zm-13.864-4.012a.749.749,0,0,1,.754-.753h2.512a.749.749,0,0,1,.754.753v.5a.749.749,0,0,0,.754.753h4.521a.753.753,0,0,1,.755.754v1.256h-6.03a2.537,2.537,0,0,0-1.1.271,2.653,2.653,0,0,0-.91.687l-2.01,2.474v-6.7Zm12.836,4.852-2.309,2.85a1.554,1.554,0,0,1-.557.415,1.578,1.578,0,0,1-.676.173h-8.541c-.277,0-.415-.091-.415-.274a.565.565,0,0,1,.141-.313l2.308-2.85a1.639,1.639,0,0,1,.562-.412,1.566,1.566,0,0,1,.671-.168h8.541c.277,0,.416.091.416.274A.514.514,0,0,1,7687.707,3867.1Z" transform="translate(-7673.867 -3860.488)" fill="#9f79ff"/>
  </g>
</svg>
