<svg xmlns="http://www.w3.org/2000/svg" width="18.836" height="13.478" viewBox="0 0 18.836 13.478">
  <g id="Grupo_5129" data-name="Grupo 5129" transform="translate(0 0)">
    <g id="Grupo_5128" data-name="Grupo 5128">
      <path id="Trazado_5430" data-name="Trazado 5430" d="M7685.522,3934.645a.244.244,0,0,1,.011-.069.51.51,0,0,0-.236-.379.6.6,0,0,0-.5.119,14.463,14.463,0,0,1-4.542,2.053,33.072,33.072,0,0,1-6.118.612c-.282.01-.479.065-.578.313v.082h-.062a1.335,1.335,0,0,0-.974.371,1.492,1.492,0,0,0-.385,1.19,4.464,4.464,0,0,1,0,.775,1.484,1.484,0,0,0,.386,1.19,1.348,1.348,0,0,0,1.035.369v.081a.488.488,0,0,0,.508.312c.235,0,.472.018.706.03.319.018.649.036.971.032h.015a.464.464,0,0,1,.352.111.534.534,0,0,1,.111.4c-.012,1.3-.01,2.62-.007,3.9v.906c0,.518.095.616.6.618s.984,0,1.477,0c.523,0,.623-.1.623-.63V3946c0-1.158,0-2.357-.007-3.534a.416.416,0,0,1,.111-.341.39.39,0,0,1,.332-.039c.152.034.308.063.463.093.235.043.479.089.716.153a15.417,15.417,0,0,1,4.3,2.015.539.539,0,0,0,.462.1.514.514,0,0,0,.241-.382.284.284,0,0,1-.011-.069Zm-11.963,5.821h-.022a.488.488,0,0,1-.472-.182.5.5,0,0,1-.11-.322v-1.276a.493.493,0,0,1,.2-.417.473.473,0,0,1,.4-.1Zm4.453,6.305a.409.409,0,0,1-.3.094h-.1c-.562-.021-.608-.068-.608-.651v-4.006a.3.3,0,0,1,.393-.355h.036c.638.08.676.124.676.792v.99c0,.909,0,1.851.008,2.774a.484.484,0,0,1-.109.363Zm-.476-5.71c-.935-.084-1.883-.135-2.769-.182-.313-.015-.432-.143-.424-.454.021-.815.013-1.625,0-2.24,0-.28.1-.4.386-.411,1.516-.081,3-.172,4.464-.387a13.1,13.1,0,0,0,2.954-.768l.284-.129v5.662l-.29-.131a15.237,15.237,0,0,0-4.606-.961Zm7.214.248v1.551c0,.11,0,.244-.1.3a.178.178,0,0,1-.09.023.443.443,0,0,1-.222-.078c-.232-.137-.478-.267-.715-.392l-.307-.163-.061-.028v-.54c-.007-.819-.014-1.64-.014-2.46,0-.921.007-1.843.014-2.77v-.646l.064-.029c.1-.053.2-.1.3-.157.229-.12.465-.243.688-.379.111-.068.231-.124.332-.068s.111.19.111.332q-.007,2.09,0,4.179Z" transform="translate(-7672.128 -3934.184)" fill="#9f79ff"/>
      <path id="Trazado_5431" data-name="Trazado 5431" d="M7689.152,3937.615a5.288,5.288,0,0,0-1.987-2.7.506.506,0,0,0-.285-.111.43.43,0,0,0-.208.06.369.369,0,0,0-.189.364c.008.178.139.277.289.392a4.485,4.485,0,0,1-.006,7.26c-.385.29-.308.5-.215.639a.368.368,0,0,0,.241.161.618.618,0,0,0,.449-.15,5.239,5.239,0,0,0,2.179-4.19A5.734,5.734,0,0,0,7689.152,3937.615Z" transform="translate(-7670.583 -3934.116)" fill="#9f79ff"/>
      <path id="Trazado_5432" data-name="Trazado 5432" d="M7685.537,3936.286a.642.642,0,0,0-.278-.073.431.431,0,0,0-.134.022.356.356,0,0,0-.2.193.443.443,0,0,0,.245.577l.025.009a2.31,2.31,0,0,1,.007,4.172c-.293.152-.391.373-.269.608.11.215.347.257.631.111a3.1,3.1,0,0,0-.023-5.619Z" transform="translate(-7670.756 -3933.965)" fill="#9f79ff"/>
      <path id="Trazado_5433" data-name="Trazado 5433" d="M7684.341,3937.867a.727.727,0,0,1-.106-.091v2.924c.035-.034.072-.064.108-.094a1.65,1.65,0,0,0,0-2.739Z" transform="translate(-7670.998 -3934.099)" fill="#9f79ff"/>
    </g>
  </g>
</svg>
