<svg xmlns="http://www.w3.org/2000/svg" xmlns:xlink="http://www.w3.org/1999/xlink" width="49" height="48" viewBox="0 0 49 48"><defs><circle id="a" cx="24" cy="24" r="24"/></defs><g transform="translate(.883)" fill="none" fill-rule="evenodd"><use fill="#3483FA" fill-opacity=".1" xlink:href="#a"/><path stroke="#3483FA" stroke-width="1.5" d="M24.799 12c6.452 0 11.683 5.23 11.683 11.682s-5.23 11.683-11.683 11.683c-2.176 0-4.213-.595-5.958-1.632l-5.42 1.392 1.29-4.792.146-.513a11.63 11.63 0 0 1-1.74-6.138C13.117 17.23 18.347 12 24.799 12z"/><path fill="#3483FA" fill-rule="nonzero" d="m27.973 25.005 2.71.932v2.367c0 .904-.485 1.306-1.389 1.306h-.727c-5.322 0-9.352-4.026-9.352-9.348v-.727c0-.95.105-1.535 1.12-1.535l2.471.07.995 2.922-1.31 1.236c-.132 1.723 1.992 4.414 4.212 3.974l1.27-1.197z"/></g></svg>